<svg xmlns="http://www.w3.org/2000/svg" width="20" height="18" viewBox="0 0 20 18" fill="none">
<path fill-rule="evenodd" clip-rule="evenodd" d="M0 9.2494C0 8.91791 0.131682 8.60001 0.366076 8.36561C0.60047 8.13122 0.918377 7.99954 1.24986 7.99954H15.7307L10.3638 2.63514C10.2476 2.51893 10.1555 2.38097 10.0926 2.22914C10.0297 2.07731 9.9973 1.91458 9.9973 1.75023C9.9973 1.58589 10.0297 1.42316 10.0926 1.27133C10.1555 1.1195 10.2476 0.981541 10.3638 0.865334C10.48 0.749126 10.618 0.656946 10.7698 0.594055C10.9217 0.531166 11.0844 0.498796 11.2487 0.498796C11.4131 0.498796 11.5758 0.531166 11.7276 0.594055C11.8795 0.656946 12.0174 0.749126 12.1336 0.865334L19.6328 8.3645C19.7492 8.4806 19.8415 8.61852 19.9046 8.77037C19.9676 8.92221 20 9.085 20 9.2494C20 9.4138 19.9676 9.57658 19.9046 9.72843C19.8415 9.88027 19.7492 10.0182 19.6328 10.1343L12.1336 17.6335C12.0174 17.7497 11.8795 17.8418 11.7276 17.9047C11.5758 17.9676 11.4131 18 11.2487 18C11.0844 18 10.9217 17.9676 10.7698 17.9047C10.618 17.8418 10.48 17.7497 10.3638 17.6335C10.1292 17.3988 9.9973 17.0805 9.9973 16.7486C9.9973 16.5842 10.0297 16.4215 10.0926 16.2697C10.1555 16.1178 10.2476 15.9799 10.3638 15.8637L15.7307 10.4993H1.24986C0.918377 10.4993 0.60047 10.3676 0.366076 10.1332C0.131682 9.89879 0 9.58088 0 9.2494Z" fill="black"/>
</svg>