<svg xmlns="http://www.w3.org/2000/svg" width="28" height="27" viewBox="0 0 28 27"><path d="M27.56 7.28a.808.808 0 00-.694-.367H8.385L6.97 2.096A3.733 3.733 0 006.453.98c-.218-.31-.45-.526-.694-.653a3.038 3.038 0 00-.64-.259A2.237 2.237 0 004.575 0H.845a.815.815 0 00-.598.245.848.848 0 00-.245.626c0 .145.036.286.109.422.072.136.177.24.313.313a.886.886 0 00.422.109h3.729a.75.75 0 01.204.027c.063.018.15.095.258.231.11.136.2.34.272.613l4.818 17.691a.985.985 0 00.463.545.78.78 0 00.354.081H22.7c.182 0 .35-.054.504-.163a.807.807 0 00.313-.408l4.164-12.248a.874.874 0 00-.122-.803zm-5.457 11.881h-10.48L8.849 8.655h16.766l-3.511 10.506zm-1.715 3.484c-.599 0-1.111.213-1.538.64-.426.426-.64.939-.64 1.538 0 .598.214 1.111.64 1.537.427.427.94.64 1.538.64.599 0 1.111-.213 1.538-.64.426-.426.64-.939.64-1.537 0-.6-.214-1.112-.64-1.538a2.097 2.097 0 00-1.538-.64zm-7.839 0c-.399 0-.766.1-1.102.3-.336.2-.599.462-.79.789-.19.326-.285.69-.285 1.089 0 .598.213 1.111.64 1.537.426.427.938.64 1.537.64.6 0 1.112-.213 1.538-.64.427-.426.64-.939.64-1.537 0-.146-.014-.29-.041-.436a1.936 1.936 0 00-.327-.776 2.355 2.355 0 00-.598-.598 1.936 1.936 0 00-.776-.327 2.36 2.36 0 00-.436-.04z" fill="#ebebeb"></path></svg>