<svg preserveAspectRatio="xMidYMin slice" viewBox="0 0 481 155" fill="none" xmlns="http://www.w3.org/2000/svg">
<path d="M63.8891 5.73987C66.6321 4.34987 72.3451 2.39387 76.5851 1.39287C80.8251 0.392866 85.2031 -0.205137 86.3151 0.0648626C89.2441 0.776863 90.9001 2.31387 90.5981 4.04287C90.3801 5.29687 91.6541 5.51687 98.1091 5.34387C111.87 4.97387 123.174 8.74387 119.951 12.6269C118.812 13.9989 119.022 14.3689 121.483 15.3239C129.542 18.4499 135.832 22.2819 140.572 26.9519C145.994 32.2929 146.667 33.9619 144.68 37.1439C143.731 38.6639 143.983 39.5969 146.096 42.3799C147.511 44.2429 149.457 47.7479 150.421 50.1699C152.159 54.5329 152.154 54.5899 149.931 56.3899C147.697 58.1999 147.694 58.2319 149.329 64.9869C150.232 68.7159 150.827 74.2419 150.652 77.2669C150.346 82.5749 150.239 82.7599 147.588 82.5789C144.461 82.3649 144.266 82.8769 143.444 93.4419C143.158 97.1139 142.231 101.776 141.385 103.802C140.074 106.938 139.491 107.398 137.465 106.889C135.498 106.395 134.629 106.98 132.462 110.255C129.397 114.887 125.487 117.731 123.326 116.902C122.487 116.58 120.346 117.204 118.568 118.288C113.143 121.596 112.464 121.089 113.177 114.267C113.791 108.398 113.751 108.267 111.359 108.267C110.013 108.267 108.108 107.403 107.124 106.348C105.46 104.563 104.965 104.525 100.046 105.802C93.3141 107.549 91.4561 106.913 92.2141 103.123C92.5162 101.612 92.7208 100.798 92.4301 100.538C92.078 100.223 90.9998 100.718 88.4891 101.767C83.8421 103.709 80.1621 103.675 79.0461 101.679C78.2501 100.257 77.7491 100.309 74.2611 102.179C69.9411 104.494 65.2201 104.922 64.5971 103.054C64.3561 102.329 62.7021 103.333 60.4811 105.554C55.8701 110.165 51.2361 110.714 50.2461 106.767C49.5291 103.911 48.6071 103.632 46.8571 105.741C46.1841 106.551 44.1041 107.501 42.2351 107.852L38.8351 108.49V114.878C38.8351 120.433 38.5931 121.267 36.9811 121.267C35.9611 121.267 33.9571 120.183 32.5281 118.858C30.3381 116.828 29.7451 116.671 28.7591 117.858C28.1161 118.633 27.2131 119.267 26.7531 119.267C25.2881 119.267 21.0671 114.108 19.2681 110.119C17.8511 106.976 17.0141 106.267 14.7221 106.267C12.2051 106.267 11.7531 105.732 10.3881 101.133C9.54908 98.3089 8.5951 93.0219 8.2671 89.3829C7.4591 80.4139 7.1191 79.4959 5.4521 81.7759C4.5841 82.9629 3.50409 83.3539 2.3331 82.9049C0.738096 82.2919 0.604093 81.2649 1.1131 73.4919C1.42609 68.6929 2.18809 63.4459 2.80409 61.8319C3.72609 59.4199 3.6511 58.7429 2.3811 58.0329C-0.169901 56.6049 0.607091 51.3479 4.38209 44.4799C7.60409 38.6179 7.78809 37.8729 6.3911 36.3289C4.99509 34.7859 5.12109 34.2069 7.76109 30.0439C9.36009 27.5229 11.3311 25.0789 12.1411 24.6129C12.9501 24.1479 13.7791 22.8669 13.9821 21.7669C14.2261 20.4489 15.2871 19.6589 17.0941 19.4509C19.4661 19.1769 19.8351 18.6889 19.8351 15.8229C19.8351 11.8879 22.4281 9.04387 23.9301 11.3309C24.7191 12.5329 25.1161 12.4409 26.3621 10.7669C30.0301 5.83887 34.2801 2.26687 36.4751 2.26687C38.5051 2.26687 38.8351 2.75587 38.8351 5.76687C38.8351 9.70887 39.7381 10.1369 42.2331 7.37987C44.5751 4.79087 55.6031 -0.036132 57.5051 0.693868C58.6831 1.14587 58.8971 2.12387 58.3991 4.77787C58.0391 6.69687 58.0051 8.26687 58.3231 8.26687C58.6411 8.26687 61.1461 7.12987 63.8891 5.73987Z" fill="#CE0507"/>
<path d="M21.8351 137.338C25.4101 136.765 34.8601 134.075 42.8351 131.359C50.8101 128.643 58.8041 126.386 60.6001 126.344C62.5221 126.299 66.1281 127.544 69.3661 129.371C75.5461 132.859 77.7461 132.759 83.6961 128.716C85.7261 127.336 88.7451 126.267 90.6101 126.267C92.4301 126.267 100.538 128.499 108.627 131.227C116.717 133.955 126.375 136.701 130.09 137.33C133.805 137.959 137.14 138.952 137.501 139.536C139.386 142.585 123.864 150.607 111.447 153.001C100.877 155.039 92.0221 153.89 82.2131 149.209L75.9051 146.198L71.0481 148.659C64.9331 151.758 55.3571 154.269 49.6911 154.26C39.4791 154.244 21.1501 147.798 15.3741 142.192C12.6951 139.593 14.0331 138.588 21.8351 137.338Z" fill="#CE0507"/>
<path d="M221.449 66.8883V61.8931H201.157V81.1714H196.161C184.766 81.1714 180.629 73.5225 180.629 60.9565C180.629 48.0783 184.064 41.0538 193.742 41.0538C198.737 41.0538 202.249 42.0684 202.483 51.8247H211.693V36.2147C210.444 35.5903 202.093 33.2488 193.742 33.2488C177.195 33.3268 169 42.1465 169 60.9565C169 80.625 177.976 88.9764 194.913 88.9764H220.669V81.1714H212.474V73.6786C212.474 67.1224 213.957 67.1224 220.591 66.8883H221.449Z" fill="white"/>
<path d="M270.366 86.2446V79.2982C266.385 81.0933 259.673 82.8104 252.336 82.8104C244.063 82.8104 241.8 78.2835 241.331 72.5079H262.327V52.2149C259.985 51.2003 255.302 49.6393 249.683 49.6393C240.629 49.6393 230.795 52.0588 230.795 69.0737C230.795 84.7617 240.005 90.0691 251.244 90.0691C262.093 90.0691 268.649 87.1812 270.366 86.2446ZM253.976 65.4834H241.331C241.488 60.3321 243.829 56.6637 248.902 56.6637C253.195 56.6637 253.976 59.7077 253.976 65.4834Z" fill="white"/>
<path d="M314.151 69.8542C314.151 56.4296 308.219 49.6393 295.263 49.6393C282.384 49.6393 276.375 56.4296 276.375 69.8542C276.375 83.2787 282.384 90.0691 295.263 90.0691C308.219 90.0691 314.151 83.2787 314.151 69.8542ZM303.77 69.8542C303.77 78.0494 301.429 83.0446 295.263 83.0446C289.097 83.0446 286.755 78.0494 286.755 69.8542C286.755 61.5809 289.097 56.6637 295.263 56.6637C301.429 56.6637 303.77 61.5809 303.77 69.8542Z" fill="white"/>
<path d="M355.576 63.9224V51.4344C354.171 50.732 351.127 49.6393 346.444 49.6393C342.541 49.6393 338.951 50.9661 337.078 53.3857V50.732H319.985V55.2589H320.531C326.619 55.415 328.024 55.4149 328.024 61.3467V88.9764H338.171V63.1419C338.171 59.0052 340.122 56.6637 343.478 56.6637C347.38 56.6637 347.458 59.8638 347.537 63.9224H355.576Z" fill="white"/>
<path d="M405.114 57.7564V50.732H379.592C367.26 50.732 359.611 56.3515 359.611 70.4005C359.611 83.9031 365.465 89.991 378.031 90.0691C382.167 90.0691 384.743 88.7422 386.929 86.7129V84.5861C386.929 92.157 383.26 95.9814 375.221 95.9814C367.26 95.9814 361.875 94.1863 357.972 92.3131V99.3375C360.001 100.43 365.699 103.24 376.158 103.24C386.694 103.24 397.075 98.2448 397.075 84.6642V76.4104C397.075 70.3225 398.48 70.4786 405.114 70.3225V65.7956H386.929V71.8835C386.929 79.6104 383.807 83.0446 378.811 83.0446C372.411 83.0446 369.992 78.5177 369.992 70.4005C369.992 61.5809 372.958 57.7564 379.592 57.7564H405.114Z" fill="white"/>
<path d="M427.561 44.488V32H417.414V44.488H427.561ZM427.561 88.9764V50.732H409.375V55.2589H409.922C416.009 55.415 417.414 55.4149 417.414 61.3467V88.9764H427.561Z" fill="white"/>
<path d="M476.107 72.8981V65.8736H468.067V61.1126C468.067 53.3076 461.98 49.6393 454.097 49.6393C448.945 49.6393 444.652 50.4978 442.077 51.5905V62.9858H450.194C450.272 59.0052 450.662 56.6637 453.706 56.6637C456.282 56.6637 457.921 57.4442 457.921 61.0345V65.8736H451.209C443.95 65.8736 438.877 69.62 438.877 77.9714C438.877 86.7129 444.262 90.0691 451.131 90.0691C452.301 90.0691 454.331 89.7569 454.799 89.6008V82.8104C454.487 82.8885 454.175 82.8885 453.94 82.8885C451.209 82.8885 449.179 81.4055 449.179 77.9714C449.179 74.5372 451.131 72.8981 453.94 72.8981H457.921V88.9764H476.107V84.4495C469.472 84.2934 468.067 84.4495 468.067 78.3616V72.8981H476.107Z" fill="white"/>
<path d="M243.028 114.328H248.329V115.974H244.737V122.24H243.028V114.328ZM253.965 114.122C255.042 114.122 255.97 114.528 256.751 115.341C257.521 116.142 257.906 117.124 257.906 118.284C257.906 119.455 257.521 120.441 256.751 121.243C255.98 122.045 255.052 122.446 253.965 122.446C252.773 122.446 251.85 122.003 251.196 121.117V125.405H249.487V114.328H251.196V115.467C251.84 114.571 252.763 114.122 253.965 114.122ZM251.908 120.104C252.383 120.578 252.979 120.816 253.696 120.816C254.414 120.816 255.01 120.578 255.485 120.104C255.959 119.618 256.197 119.012 256.197 118.284C256.197 117.556 255.959 116.955 255.485 116.48C255.01 115.995 254.414 115.752 253.696 115.752C252.979 115.752 252.383 115.995 251.908 116.48C251.434 116.955 251.196 117.556 251.196 118.284C251.196 119.001 251.434 119.608 251.908 120.104ZM262.453 120.088L264.478 114.328H266.298L263.26 122.493C262.891 123.495 262.374 124.244 261.709 124.74C261.044 125.236 260.274 125.458 259.399 125.405V123.807C260.411 123.87 261.113 123.364 261.503 122.288L261.551 122.177L258.228 114.328H260.048L262.453 120.088ZM271.659 118.189C272.503 118.569 272.925 119.197 272.925 120.072C272.925 120.758 272.645 121.328 272.086 121.781C271.527 122.224 270.767 122.446 269.807 122.446C268.214 122.446 267.138 121.813 266.579 120.547L267.972 119.724C268.257 120.515 268.874 120.911 269.823 120.911C270.266 120.911 270.614 120.821 270.868 120.642C271.121 120.452 271.247 120.204 271.247 119.898C271.247 119.624 271.147 119.407 270.947 119.249C270.746 119.08 270.467 118.996 270.108 118.996H268.985V117.493H269.823C270.171 117.493 270.44 117.414 270.63 117.255C270.831 117.087 270.931 116.86 270.931 116.575C270.931 116.301 270.82 116.079 270.599 115.91C270.377 115.731 270.082 115.641 269.712 115.641C268.921 115.641 268.373 115.989 268.067 116.686L266.674 115.895C267.254 114.713 268.257 114.122 269.681 114.122C270.567 114.122 271.268 114.349 271.785 114.803C272.313 115.246 272.577 115.789 272.577 116.433C272.577 117.224 272.271 117.809 271.659 118.189ZM275.998 119.344L280.049 114.328H281.363V122.24H279.685V117.208L275.634 122.24H274.321V114.328H275.998V119.344ZM288.678 117.477V114.328H290.387V122.24H288.678V119.091H285.055V122.24H283.345V114.328H285.055V117.477H288.678ZM296.105 122.446C294.913 122.446 293.916 122.045 293.114 121.243C292.323 120.431 291.927 119.444 291.927 118.284C291.927 117.102 292.323 116.116 293.114 115.325C293.916 114.523 294.913 114.122 296.105 114.122C296.875 114.122 297.576 114.307 298.209 114.676C298.842 115.045 299.317 115.541 299.634 116.164L298.162 117.018C297.983 116.638 297.708 116.343 297.339 116.132C296.98 115.91 296.564 115.8 296.089 115.8C295.393 115.8 294.807 116.037 294.332 116.512C293.868 116.997 293.636 117.588 293.636 118.284C293.636 118.98 293.868 119.571 294.332 120.056C294.807 120.531 295.393 120.768 296.089 120.768C296.553 120.768 296.97 120.663 297.339 120.452C297.719 120.23 298.004 119.93 298.194 119.55L299.665 120.389C299.328 121.022 298.837 121.523 298.194 121.892C297.561 122.261 296.864 122.446 296.105 122.446ZM304.333 118.205L307.941 122.24H305.9L302.656 118.585V122.24H300.947V114.328H302.656V117.825L305.726 114.328H307.815L304.333 118.205ZM310.768 119.344L314.819 114.328H316.133V122.24H314.455V117.208L310.404 122.24H309.091V114.328H310.768V119.344ZM323.844 113.22H319.413V111.733H323.844V113.22ZM319.793 119.344L323.844 114.328H325.157V122.24H323.48V117.208L319.429 122.24H318.116V114.328H319.793V119.344ZM335.575 114.122C336.651 114.122 337.579 114.528 338.36 115.341C339.13 116.142 339.515 117.124 339.515 118.284C339.515 119.455 339.13 120.441 338.36 121.243C337.59 122.045 336.661 122.446 335.575 122.446C334.382 122.446 333.459 122.003 332.805 121.117V125.405H331.096V114.328H332.805V115.467C333.449 114.571 334.372 114.122 335.575 114.122ZM333.517 120.104C333.992 120.578 334.588 120.816 335.306 120.816C336.023 120.816 336.619 120.578 337.094 120.104C337.568 119.618 337.806 119.012 337.806 118.284C337.806 117.556 337.568 116.955 337.094 116.48C336.619 115.995 336.023 115.752 335.306 115.752C334.588 115.752 333.992 115.995 333.517 116.48C333.043 116.955 332.805 117.556 332.805 118.284C332.805 119.001 333.043 119.608 333.517 120.104ZM348.707 119.012H342.409C342.535 119.603 342.82 120.062 343.263 120.389C343.717 120.716 344.276 120.879 344.941 120.879C345.837 120.879 346.518 120.552 346.982 119.898L348.39 120.721C347.62 121.871 346.465 122.446 344.925 122.446C343.648 122.446 342.609 122.055 341.807 121.275C341.016 120.484 340.621 119.487 340.621 118.284C340.621 117.113 341.011 116.127 341.792 115.325C342.562 114.523 343.564 114.122 344.798 114.122C345.948 114.122 346.898 114.528 347.647 115.341C348.396 116.153 348.77 117.139 348.77 118.3C348.77 118.511 348.749 118.748 348.707 119.012ZM342.393 117.619H347.045C346.929 116.997 346.666 116.517 346.254 116.179C345.853 115.842 345.363 115.673 344.782 115.673C344.149 115.673 343.622 115.847 343.2 116.195C342.778 116.543 342.509 117.018 342.393 117.619ZM353.962 122.446C352.77 122.446 351.773 122.045 350.971 121.243C350.18 120.431 349.784 119.444 349.784 118.284C349.784 117.102 350.18 116.116 350.971 115.325C351.773 114.523 352.77 114.122 353.962 114.122C354.732 114.122 355.434 114.307 356.067 114.676C356.7 115.045 357.174 115.541 357.491 116.164L356.019 117.018C355.84 116.638 355.566 116.343 355.196 116.132C354.838 115.91 354.421 115.8 353.946 115.8C353.25 115.8 352.664 116.037 352.19 116.512C351.726 116.997 351.494 117.588 351.494 118.284C351.494 118.98 351.726 119.571 352.19 120.056C352.664 120.531 353.25 120.768 353.946 120.768C354.41 120.768 354.827 120.663 355.196 120.452C355.576 120.23 355.861 119.93 356.051 119.55L357.523 120.389C357.185 121.022 356.694 121.523 356.051 121.892C355.418 122.261 354.722 122.446 353.962 122.446ZM357.842 114.328H364.725V115.974H362.146V122.24H360.437V115.974H357.842V114.328ZM372.266 121.243C371.465 122.045 370.478 122.446 369.307 122.446C368.136 122.446 367.15 122.045 366.348 121.243C365.536 120.431 365.13 119.444 365.13 118.284C365.13 117.124 365.536 116.137 366.348 115.325C367.15 114.523 368.136 114.122 369.307 114.122C370.478 114.122 371.465 114.523 372.266 115.325C373.079 116.137 373.485 117.124 373.485 118.284C373.485 119.444 373.079 120.431 372.266 121.243ZM366.839 118.284C366.839 119.001 367.076 119.597 367.551 120.072C368.025 120.547 368.611 120.784 369.307 120.784C370.004 120.784 370.589 120.547 371.064 120.072C371.538 119.597 371.776 119.001 371.776 118.284C371.776 117.567 371.538 116.971 371.064 116.496C370.589 116.021 370.004 115.784 369.307 115.784C368.611 115.784 368.025 116.021 367.551 116.496C367.076 116.971 366.839 117.567 366.839 118.284ZM379.508 114.122C380.584 114.122 381.513 114.528 382.293 115.341C383.064 116.142 383.449 117.124 383.449 118.284C383.449 119.455 383.064 120.441 382.293 121.243C381.523 122.045 380.595 122.446 379.508 122.446C378.316 122.446 377.393 122.003 376.739 121.117V125.405H375.03V114.328H376.739V115.467C377.383 114.571 378.306 114.122 379.508 114.122ZM377.451 120.104C377.926 120.578 378.522 120.816 379.239 120.816C379.957 120.816 380.553 120.578 381.028 120.104C381.502 119.618 381.74 119.012 381.74 118.284C381.74 117.556 381.502 116.955 381.028 116.48C380.553 115.995 379.957 115.752 379.239 115.752C378.522 115.752 377.926 115.995 377.451 116.48C376.977 116.955 376.739 117.556 376.739 118.284C376.739 119.001 376.977 119.608 377.451 120.104ZM391.264 115.451V114.328H392.973V122.24H391.264V121.101C390.62 121.997 389.697 122.446 388.495 122.446C387.408 122.446 386.48 122.045 385.71 121.243C384.94 120.441 384.555 119.455 384.555 118.284C384.555 117.113 384.94 116.127 385.71 115.325C386.48 114.523 387.408 114.122 388.495 114.122C389.697 114.122 390.62 114.565 391.264 115.451ZM386.976 120.104C387.45 120.578 388.046 120.816 388.764 120.816C389.481 120.816 390.077 120.578 390.552 120.104C391.027 119.618 391.264 119.012 391.264 118.284C391.264 117.556 391.027 116.955 390.552 116.48C390.077 115.995 389.481 115.752 388.764 115.752C388.046 115.752 387.45 115.995 386.976 116.48C386.501 116.955 386.264 117.556 386.264 118.284C386.264 119.001 386.501 119.608 386.976 120.104ZM400.298 117.477V114.328H402.007V122.24H400.298V119.091H396.674V122.24H394.965V114.328H396.674V117.477H400.298Z" fill="#dddddd"/>
<path fill-rule="evenodd" clip-rule="evenodd" d="M229.643 114.361C229.643 114.425 229.764 115.135 229.912 115.938C230.059 116.742 230.154 117.425 230.123 117.457C230.091 117.489 229.441 117.39 228.678 117.238C227.916 117.086 227.233 116.962 227.161 116.962C227.064 116.962 227.031 117.303 227.031 118.32C227.031 119.067 227.06 119.678 227.095 119.678C227.13 119.678 227.816 119.557 228.619 119.409C229.423 119.262 230.102 119.162 230.128 119.188C230.154 119.214 230.055 119.883 229.909 120.675C229.763 121.467 229.643 122.155 229.643 122.203C229.643 122.251 230.254 122.29 231.001 122.29C232.018 122.29 232.359 122.257 232.359 122.16C232.359 122.088 232.235 121.405 232.083 120.643C231.931 119.88 231.834 119.228 231.869 119.193C231.903 119.159 232.582 119.254 233.377 119.405C234.172 119.555 234.879 119.678 234.949 119.678C235.042 119.678 235.076 119.316 235.076 118.32C235.076 117.065 235.061 116.962 234.881 116.962C234.774 116.962 234.109 117.079 233.404 117.223C232.699 117.367 232.04 117.484 231.941 117.484C231.776 117.484 231.785 117.367 232.056 116.1C232.494 114.046 232.607 114.245 231.001 114.245C230.075 114.245 229.643 114.282 229.643 114.361Z" fill="white"/>
<path fill-rule="evenodd" clip-rule="evenodd" d="M412.643 114.361C412.643 114.425 412.764 115.135 412.912 115.938C413.059 116.742 413.154 117.425 413.123 117.457C413.091 117.489 412.441 117.39 411.678 117.238C410.916 117.086 410.233 116.962 410.161 116.962C410.064 116.962 410.031 117.303 410.031 118.32C410.031 119.067 410.059 119.678 410.095 119.678C410.13 119.678 410.816 119.557 411.619 119.409C412.423 119.262 413.102 119.162 413.128 119.188C413.154 119.214 413.055 119.883 412.909 120.675C412.763 121.467 412.643 122.155 412.643 122.203C412.643 122.251 413.254 122.29 414.001 122.29C415.018 122.29 415.359 122.257 415.359 122.16C415.359 122.088 415.235 121.405 415.083 120.643C414.931 119.88 414.834 119.228 414.869 119.193C414.903 119.159 415.582 119.254 416.377 119.405C417.172 119.555 417.879 119.678 417.949 119.678C418.042 119.678 418.076 119.316 418.076 118.32C418.076 117.065 418.061 116.962 417.881 116.962C417.774 116.962 417.109 117.079 416.404 117.223C415.699 117.367 415.04 117.484 414.941 117.484C414.776 117.484 414.785 117.367 415.056 116.1C415.494 114.046 415.607 114.245 414.001 114.245C413.075 114.245 412.643 114.282 412.643 114.361Z" fill="white"/>
</svg>
