<svg xmlns="http://www.w3.org/2000/svg" viewBox="0 0 122.88 103.17" width="18"><path d="M 26.006 0 L 96.894 0 C 104.045 0 110.547 2.93 115.258 7.64 L 115.478 7.88 C 120.059 12.57 122.9 18.98 122.9 26.01 L 122.9 77.17 C 122.9 84.32 119.969 90.82 115.258 95.53 C 110.547 100.24 104.045 103.17 96.894 103.17 L 26.006 103.17 C 18.865 103.17 12.363 100.24 7.651 95.53 L 7.642 95.53 C 2.931 90.82 0 84.32 0 77.16 L 0 26 C 0 18.87 2.92 12.37 7.642 7.65 L 7.662 7.62 C 12.383 2.92 18.874 0 26.006 0 Z M 37 29.7 L 85.9 29.7 C 88.1 29.7 90 31.6 90 33.8 C 90 36.1 88.1 37.9 85.9 37.9 L 37 37.9 C 34.8 37.9 32.9 36.1 32.9 33.8 C 32.9 31.6 34.8 29.7 37 29.7 Z M 37 65.3 L 85.9 65.3 C 88.1 65.3 90 67.1 90 69.3 C 90 71.6 88.1 73.4 85.9 73.4 L 37 73.4 C 34.8 73.4 32.9 71.6 32.9 69.3 C 32.9 67.1 34.8 65.3 37 65.3 Z M 37 47.5 L 85.9 47.5 C 88.1 47.5 90 49.3 90 51.6 C 90 53.8 88.1 55.7 85.9 55.7 L 37 55.7 C 34.8 55.7 32.9 53.8 32.9 51.6 C 32.9 49.3 34.8 47.5 37 47.5 Z M 96.903 8.2 L 26.006 8.2 C 21.105 8.2 16.654 10.2 13.433 13.42 L 13.414 13.44 C 10.203 16.65 8.202 21.1 8.202 26 L 8.202 77.16 C 8.202 82.05 10.212 86.5 13.433 89.72 L 13.423 89.73 C 16.654 92.95 21.105 94.96 25.997 94.96 L 96.884 94.96 C 101.765 94.96 106.216 92.95 109.447 89.72 C 112.678 86.49 114.688 82.04 114.688 77.16 L 114.688 26 C 114.688 21.2 112.757 16.83 109.646 13.61 L 109.457 13.43 C 106.236 10.21 101.795 8.2 96.903 8.2 Z"></path></svg>