<svg xmlns="http://www.w3.org/2000/svg" width="29" height="28" viewBox="0 0 29 28" fill="none"><g clip-path="url(#clip0)" fill="#ebebeb"><path d="M10.502 3.5a4.375 4.375 0 110 8.75 4.375 4.375 0 010-8.75zm0-1.75a6.125 6.125 0 100 12.25 6.125 6.125 0 000-12.25zm8.75 24.5h-1.75v-4.375a4.375 4.375 0 00-4.375-4.375h-5.25a4.375 4.375 0 00-4.375 4.375v4.375h-1.75v-4.375a6.125 6.125 0 016.125-6.125h5.25a6.125 6.125 0 016.125 6.125v4.375z"></path><path d="M19.252 3.5h8.75v1.75h-8.75V3.5z" fill-opacity=".01"></path><path d="M19.252 6.875h8.75v1.75h-8.75v-1.75zm0 4.375h6.125V13h-6.125v-1.75z"></path></g><defs><clipPath id="clip0"><path fill="#fff" transform="translate(.002)" d="M0 0h28v28H0z"></path></clipPath></defs></svg>