<svg xmlns="http://www.w3.org/2000/svg" width="16" height="16" fill="none"><path fill-rule="evenodd" clip-rule="evenodd" d="M8 16C4.5 14.5.188 10.824 1.14 6.588c.525-2.336 1.68-3.097 2.84-3.863C4.924 2.103 5.873 1.477 6.491 0 8.5.5 9.274 2.537 9.274 4.092c0 1.555 0 3.437.92 3.437.744 0 .77-.703.802-1.514.034-.872.072-1.87 1.013-2.25.012.72.37 1.195.78 1.738.394.52.834 1.104 1.06 2.026.46 1.883 0 4.471-2.349 6.471-1.492 1.271-2.38 1.584-3 1.803-.188.066-.352.124-.5.197zm0-1s-1.624-1.06-2-2.5c-.47-1.8.592-2.5 2-2.5s2.47.7 2 2.5C9.624 13.94 8 15 8 15z" fill="url(#paint0_linear)"></path><defs><linearGradient id="paint0_linear" x1="7.499" y1="0" x2="7.499" y2="16" gradientUnits="userSpaceOnUse"><stop stop-color="#FE6130"></stop><stop offset="1" stop-color="#FEC430"></stop></linearGradient></defs></svg>