<?xml version="1.0" standalone="no"?>
<!DOCTYPE svg PUBLIC "-//W3C//DTD SVG 20010904//EN"
 "http://www.w3.org/TR/2001/REC-SVG-20010904/DTD/svg10.dtd">
<svg version="1.0" xmlns="http://www.w3.org/2000/svg"
 width="512.000000pt" height="512.000000pt" viewBox="0 0 512.000000 512.000000"
 preserveAspectRatio="xMidYMid meet">

<g transform="translate(0.000000,512.000000) scale(0.100000,-0.100000)"
fill="#000000" stroke="none">
<path d="M2160 4800 c-597 -72 -1102 -271 -1510 -595 -332 -263 -554 -609
-627 -975 -24 -118 -23 -374 0 -494 92 -458 400 -863 882 -1156 81 -50 293
-156 378 -189 53 -22 57 -26 57 -56 0 -48 -35 -176 -65 -237 -82 -162 -182
-294 -362 -477 -142 -145 -156 -168 -134 -234 34 -101 107 -107 351 -29 616
200 1165 454 1525 707 122 86 133 90 255 100 182 13 451 67 660 132 820 252
1399 799 1527 1440 23 120 24 375 0 494 -147 738 -881 1336 -1877 1530 -312
60 -751 76 -1060 39z m737 -225 c663 -73 1215 -310 1586 -681 298 -297 433
-629 406 -998 -35 -469 -403 -926 -974 -1205 -337 -165 -680 -257 -1089 -291
-144 -12 -156 -17 -266 -100 -229 -173 -600 -371 -985 -523 -277 -110 -250
-102 -233 -75 121 184 158 254 199 377 55 160 63 357 18 430 -20 34 -36 42
-224 121 -284 119 -523 278 -712 472 -144 147 -232 275 -302 440 -62 145 -82
240 -88 413 -6 178 14 299 76 455 214 546 860 986 1661 1129 283 51 656 65
927 36z"/>
<path d="M2430 3993 c-70 -6 -199 -32 -270 -55 -74 -24 -160 -65 -160 -76 0
-11 98 -323 103 -328 2 -2 31 9 63 26 182 91 395 72 452 -40 53 -105 14 -206
-167 -430 -130 -160 -191 -334 -174 -497 l6 -63 203 0 202 0 7 78 c13 162 56
251 199 417 173 201 226 312 226 482 0 285 -207 468 -550 486 -52 2 -115 3
-140 0z"/>
<path d="M2371 2363 c-61 -22 -133 -96 -154 -158 -72 -211 80 -416 290 -391
73 9 120 30 165 73 110 107 109 313 -2 420 -68 67 -200 91 -299 56z"/>
</g>
</svg>
