<svg version="1.1" id="Capa_1" xmlns="http://www.w3.org/2000/svg" xmlns:xlink="http://www.w3.org/1999/xlink" x="0px" y="0px" viewBox="0 0 372.002 372.002" xml:space="preserve">
<g><g><path d="M29.953,348.569c-5.329-12.811,0.459-27.827,17.169-44.608L343.87,5.924
			c11.293-9.246,21.457-6.935,25.216,1.87c10.87,25.357-68.271,168.499-104.004,206.067c-38.362,40.285-67.301,55.09-88.899,45.897
			c-12.846-5.417-32.45,19.199-46.779,36.58c-4.941,5.982-10.199,13.305-15.599,20.84c-17.116,23.857-33.297,46.373-51.614,48.949
			c-0.476,0.071-2.559,0.194-3.035,0.194l0,0C50.387,366.303,35.37,361.591,29.953,348.569z M184.335,240.559
			c1.553,0.671,3.176,0.971,5.064,0.971c7.676,0,25.763-5.453,60.595-42.05c33.721-35.433,79.088-123.291,94.352-164.564
			L61.909,318.624c-11.364,11.417-13.94,18.951-12.705,21.934c1.182,2.841,6.776,4.906,9.97,4.906l0,0l0.141,0.018
			c9.493-1.341,26.398-24.898,37.585-40.462c5.682-7.941,11.24-15.652,16.446-21.951c17.363-21.051,37.038-44.926,59.184-44.926
			C176.589,238.124,180.559,238.936,184.335,240.559z"/><g><path d="M125.363,129.621L125.363,129.621c4.111-3.512,4.606-9.74,1.094-13.852L52.487,29.04
				c-3.511-4.111-9.74-4.606-13.852-1.094l0,0c-4.111,3.511-4.606,9.74-1.112,13.852l73.989,86.729
				C115.023,132.638,121.252,133.132,125.363,129.621z"/><g><path d="M77.596,22.052l57.172,62.042c10.499,11.399,12.758,28.48,5.647,42.526
					c-2.082,4.094-1.341,9.052,1.853,12.352l17.063,17.91c10.058,10.376,25.11-4.535,15.405-15.087l-11.999-12.652
					c7.164-20.451,2.682-43.585-12.105-59.643L93.442,7.406C80.596-5.158,64.874,9.718,77.543,21.999L77.596,22.052z"/><path d="M334.765,307.542l-64.848-67.548c-9.952-8.77-24.316,5.664-14.699,15.811l64.107,66.771
					c11.752,11.946,14.381,19.763,13.093,22.834c-1.218,2.929-7.005,5.029-10.323,5.029v10.782l-0.229-10.782
					c-9.899-3.564-43.585-39.826-80.676-81.894c-9.052-11.664-26.469,1.535-17.999,12.37c38.362,43.708,80.112,88.599,95.622,90.858
					c0.512,0.071,2.77,0.229,3.282,0.229c9.07,0,24.598-4.853,30.21-18.263C357.828,340.557,351.934,325.012,334.765,307.542z"/><path d="M151.161,164.877c-6.547-7.411-9.582-11.311-16.428-18.722
					c-3.106-3.406-8.046-4.429-12.299-2.541c-14.487,6.458-32.309,2.929-42.932-8.593L22.33,72.96l-0.176-0.141
					C10.684,59.973-6.168,73.172,6.29,87.377l57.349,62.254c11.046,11.981,26.786,18.863,43.232,18.863l0,0
					c5.77,0,11.417-0.812,16.869-2.417c5.382,5.894,6.829,8.046,11.999,13.905C144.862,189.122,159.173,174.811,151.161,164.877z"/></g></g></g></svg>